<?xml version="1.0" encoding="utf-8"?>
<!-- Generator: Adobe Illustrator 17.0.0, SVG Export Plug-In . SVG Version: 6.00 Build 0)  -->
<!DOCTYPE svg PUBLIC "-//W3C//DTD SVG 1.1//EN" "http://www.w3.org/Graphics/SVG/1.1/DTD/svg11.dtd">
<svg version="1.1" id="Layer_1" xmlns="http://www.w3.org/2000/svg" xmlns:xlink="http://www.w3.org/1999/xlink" x="0px" y="0px"
	 width="376.481px" height="86.996px" viewBox="0 0 376.481 86.996" enable-background="new 0 0 376.481 86.996"
	 xml:space="preserve">
<g opacity="0.8">
	<path fill="#333333" d="M98.697,75.003c-0.777,0.042-1.696,0.329-2.392,0.053c-0.54-0.214-0.92-1.087-1.167-1.743
		c-1.097-2.924-0.609-6-0.654-9.007c-0.021-1.385,0.56-2.782,0.893-4.168c0.469-1.955,0.936-3.911,1.448-5.855
		c1.105-4.197,2.278-8.377,3.332-12.586c0.246-0.984,0.151-2.058,0.169-3.092c0.012-0.701,0.01-1.345,0.787-1.719
		c0.232-0.112,0.435-0.487,0.474-0.766c0.219-1.575,0.391-3.156,0.565-4.737c0.139-1.267,0.64-2.594,1.8-2.884
		c1.177-0.294,2.307-0.614,3.43-1.057c0.177-0.07,0.799,0.437,0.859,0.747c0.09,0.461,0.006,1.082-0.254,1.464
		c-1.068,1.564-1.459,3.277-1.429,5.133c0.004,0.264-0.075,0.587-0.236,0.787c-1.587,1.979-1.273,4.401-1.585,6.674
		c-0.13,0.944-0.283,1.9-0.264,2.848c0.039,2.018,0.07,4.047,0.319,6.045c0.23,1.845,0.652,3.68,1.154,5.474
		c0.418,1.493,1.086,2.914,1.621,4.376c0.43,1.175,0.779,2.382,1.255,3.538c0.427,1.036,1.207,1.036,1.976,0.198
		c1.359-1.482,1.954-3.289,2.569-5.15c0.743-2.249,1.764-4.404,2.632-6.613c0.506-1.287,0.934-2.604,1.418-3.9
		c0.718-1.923,0.082-3.816-0.237-5.67c-0.408-2.369-0.473-4.702,0.187-6.982c0.235-0.811,0.966-1.572,1.653-2.132
		c0.8-0.652,2.227,0.532,2.175,1.884c-0.053,1.376-0.348,2.741-0.476,4.116c-0.179,1.931-0.31,3.867-0.443,5.802
		c-0.06,0.875-0.169,1.763-0.088,2.629c0.161,1.735,0.33,3.482,0.697,5.181c0.381,1.765,0.888,3.521,1.541,5.203
		c0.801,2.062,2.086,3.876,4.026,5.003c1.749,1.017,4.971-0.703,5.659-2.621c0.877-2.446,1.624-5.035,4.101-6.523
		c0.826-0.496,1.991-0.407,2.542,0.355c0.129,0.178,0.295,0.514,0.221,0.615c-0.138,0.189-0.445,0.373-0.67,0.36
		c-1.514-0.091-2.311,0.97-2.831,2.043c-0.754,1.557-1.236,3.245-0.78,5.051c0.219,0.869,0.632,1.051,1.202,0.403
		c0.747-0.85,1.471-1.749,2.024-2.729c0.361-0.64,0.777-1.177,1.431-0.948c0.47,0.164,0.873,0.775,1.118,1.277
		c0.587,1.202,0.85,2.625,1.645,3.646c0.815,1.046,2.926,1.526,4.538,0.109c1.026-0.902,2.118-1.734,3.095-2.686
		c0.295-0.288,0.473-0.896,0.409-1.312c-0.143-0.93,0.245-2.168,1.022-2.169c0.509-0.001,1.062,0.635,1.512,1.072
		c0.232,0.225,0.282,0.636,0.503,1.184c0.464-0.356,0.879-0.609,1.214-0.943c1.976-1.973,3.32-1.185,4.284,0.892
		c0.557,1.201,1.335,2.169,2.557,2.735c0.754,0.349,1.377,0.394,2.214-0.094c0.899-0.524,2.113-0.473,3.112-0.867
		c1.867-0.737,3.772-1.307,5.098-3.134c1.259-1.735,2.938-3.175,4.498-4.676c0.574-0.552,2.451,0.193,2.563,0.972
		c0.029,0.205-0.234,0.536-0.45,0.674c-0.397,0.254-0.857,0.413-1.294,0.604c-1.684,0.738-2.403,2.21-2.822,3.851
		c-0.308,1.204,0.948,2.215,2.139,1.632c1.583-0.776,3.113-1.694,4.562-2.702c1.307-0.91,1.651-2.102,1.085-3.581
		c-1.715-4.48-1.205-9.132-1.007-13.727c0.074-1.733,1.059-3.408,1.39-5.155c0.428-2.254,1.871-3.814,3.26-5.443
		c1.935-2.268,5.228-1.66,6.111,1.228c0.374,1.222,0.323,2.588,0.381,3.892c0.175,3.959-1.732,7.346-3.035,10.902
		c-0.347,0.946-0.469,1.975-0.815,2.921c-0.665,1.818-1.462,3.589-2.106,5.415c-0.199,0.565-0.186,1.261-0.084,1.866
		c0.399,2.381,0.749,4.763,2.353,6.766c1.281,1.6,2.491,1.75,3.799,0.181c0.532-0.638,0.999-1.333,1.478-2.014
		c0.135-0.192,0.344-0.478,0.287-0.636c-0.407-1.116,0.267-2.043,0.424-3.059c0.533-3.46,2.612-5.679,5.528-7.262
		c0.329-0.179,0.968-0.055,1.336,0.153c1.05,0.594,1.505,2.396,1.012,3.524c-0.85,1.945-2.383,3.263-4.105,4.361
		c-1.319,0.841-1.41,1.063-0.413,2.241c0.331,0.391,0.558,0.89,0.938,1.216c1.237,1.064,3.308,1.002,4.839,0.19
		c1.186-0.629,2.193-1.287,3.007-2.426c0.702-0.982,0.782-1.921,0.775-3.012c-0.03-4.381-0.033-8.763,0.01-13.144
		c0.006-0.615,0.377-1.217,0.493-1.841c0.268-1.443,0.423-2.909,0.738-4.341c0.226-1.024,0.595-2.023,0.976-3.005
		c0.587-1.515,1.079-3.1,1.905-4.48c0.942-1.573,2.134-3.017,3.356-4.394c0.727-0.82,1.762-1.357,2.581-2.106
		c0.791-0.724,1.639-0.986,2.62-0.588c1.241,0.502,2.056,1.293,2.357,2.746c0.427,2.064-0.268,3.848-0.977,5.65
		c-0.959,2.437-2.059,4.82-2.995,7.265c-1.099,2.871-1.963,5.836-3.156,8.665c-1.277,3.028-2.828,5.94-4.235,8.914
		c-0.195,0.412-0.489,1.014-0.332,1.318c0.931,1.803,1.048,3.974,2.73,5.459c1.453,1.282,2.778,1.613,4.353,0.463
		c0.988-0.721,1.832-1.64,2.744-2.466c0.444-0.402,0.897-0.793,1.345-1.189c0.115,0.105,0.231,0.21,0.346,0.316
		c-0.328,0.445-0.617,0.926-0.99,1.329c-1.293,1.397-2.631,2.752-3.917,4.155c-0.373,0.407-0.629,0.824-1.268,0.405
		c-0.178-0.117-0.544-0.056-0.778,0.039c-1.547,0.624-3.058,0.12-4.187-0.712c-0.917-0.675-1.313-2.048-1.962-3.098
		c-0.282-0.456-0.621-0.876-0.895-1.258c-1.566,1.109-2.953,2.164-4.412,3.109c-3.898,2.524-5.56,1.604-8.348-0.79
		c-0.993-0.853-1.054-0.896-1.581,0.322c-1.181,2.726-2.221,3.441-5.154,3.208c-1.783-0.142-2.888-1.419-3.689-2.878
		c-0.509-0.927-0.764-1.989-1.181-2.971c-0.439-1.035-0.92-1.076-1.824-0.478c-1.685,1.115-3.344,2.347-5.185,3.128
		c-1.637,0.694-4.106,0.44-5.108-1.723c-0.147-0.317-0.341-0.611-0.491-0.878c-1.917,0.953-3.679,2.057-5.595,2.711
		c-1.6,0.546-3.384,0.774-5.081,0.752c-1.545-0.02-2.649-1.148-3.513-2.441c-0.357-0.535-0.89-0.952-1.343-1.423
		c-0.526,0.679-1.115,1.32-1.555,2.05c-0.255,0.424-0.316,0.985-0.385,1.495c-0.104,0.76-0.582,0.986-1.25,1.011
		c-0.707,0.027-1.13-0.276-1.242-1.006c-0.041-0.27-0.178-0.527-0.28-0.787c-0.273-0.698-0.564-0.913-1.313-0.376
		c-1.676,1.2-3.431,2.293-5.18,3.386c-1.389,0.868-2.624,0.225-3.712-0.617c-0.936-0.724-1.738-1.621-2.658-2.496
		c-0.735,0.695-1.442,1.381-2.168,2.046c-1.197,1.095-2.6,0.796-3.269-0.708c-0.285-0.641-0.505-1.311-0.751-1.958
		c-0.886,0.452-1.659,0.815-2.402,1.231c-2.537,1.421-6.992-0.204-8.321-2.583c-1.246-2.23-2.309-4.423-2.119-7.085
		c0.068-0.962-0.266-1.96-0.48-2.928c-0.044-0.201-0.387-0.499-0.556-0.476c-0.321,0.043-0.769,0.207-0.894,0.457
		c-0.457,0.916-0.916,1.858-1.172,2.843c-0.959,3.694-2.186,7.289-4.181,10.546c-0.447,0.73-1.618,1.488-2.387,1.423
		c-0.862-0.073-1.925-0.897-2.406-1.694c-1.078-1.786-2.018-3.698-2.701-5.668c-0.707-2.039-1.048-4.205-1.541-6.317
		c-0.225-0.966-0.413-1.94-0.665-2.899c-0.046-0.176-0.418-0.445-0.466-0.413c-0.27,0.181-0.622,0.404-0.7,0.682
		c-0.366,1.294-0.622,2.618-0.975,3.916c-0.249,0.917-0.549,1.825-0.897,2.709c-1.146,2.913-1.48,5.907-0.976,8.995
		c0.032,0.195,0.179,0.405,0.137,0.574c-0.597,2.366,0.188,4.601,0.618,6.87C98.827,74.744,98.764,74.824,98.697,75.003z
		 M210.296,55.426c0.439-0.68,0.771-1.066,0.964-1.512c1.05-2.423,2.071-4.859,3.093-7.294c0.798-1.901,1.587-3.807,2.375-5.713
		c0.901-2.179,1.782-4.366,2.7-6.538c0.672-1.59,1.556-3.123,1.536-4.908c-0.009-0.833,0.033-1.897-0.432-2.446
		c-1.033-1.22-1.919-1.11-3.198-0.041c-0.214,0.179-0.495,0.291-0.674,0.496c-1.011,1.156-2.21,2.212-2.959,3.522
		c-2.041,3.57-3.004,7.539-3.591,11.569c-0.354,2.428-0.466,4.9-0.53,7.357c-0.039,1.495,0.213,2.999,0.353,4.497
		C209.954,54.634,210.083,54.844,210.296,55.426z M183.703,49.489c-0.123,0.024-0.246,0.049-0.369,0.073
		c0.293,1.253,0.568,2.511,0.898,3.755c0.058,0.217,0.317,0.456,0.535,0.527c0.123,0.04,0.422-0.204,0.519-0.386
		c0.483-0.905,1.043-1.792,1.36-2.757c1.153-3.512,2.354-7.019,3.26-10.598c0.429-1.695,0.332-3.551,0.278-5.328
		c-0.032-1.052-1.703-1.906-2.455-1.327c-1.49,1.148-2.894,2.508-3.381,4.345c-0.614,2.318-0.882,4.728-1.284,7.101
		c-0.031,0.186,0.056,0.391,0.083,0.588C183.332,46.818,183.517,48.154,183.703,49.489z M197.544,58.429
		c0.397-0.21,0.647-0.275,0.798-0.434c0.757-0.797,1.517-1.594,2.205-2.448c0.163-0.202,0.053-0.624,0.068-0.945
		c-0.33,0.001-0.708-0.104-0.982,0.02c-1.296,0.585-1.789,1.836-2.321,3.023C197.236,57.816,197.443,58.112,197.544,58.429z"/>
	<path fill="#333333" d="M325.814,62.816c-1.346,1.005-2.443,2.102-3.762,2.746c-2.093,1.021-4.21,2.223-6.745,1.582
		c-1.529-0.387-2.396-1.564-3.252-2.674c-1.457-1.89-1.397-1.949-3.081-0.296c-0.626,0.614-1.228,1.255-1.813,1.909
		c-1.374,1.533-3.08,1.321-3.778-0.574c-0.487-1.322-0.858-2.714-0.233-4.141c0.101-0.231,0.014-0.543,0.014-0.966
		c-1.617-0.002-2.989,0.622-4.332,1.33c-2.271,1.196-4.507,2.461-6.805,3.602c-1.719,0.853-3.466,1.699-5.286,2.286
		c-1.719,0.554-4.796,0.386-5.938-1.636c-0.514-0.91-0.891-2.103-0.793-3.115c0.257-2.644,1.036-5.247,1.178-7.889
		c0.121-2.24,1.4-4.093,1.555-6.257c0.027-0.378-0.168-0.772-0.26-1.159c-0.337,0.154-0.747,0.231-0.999,0.473
		c-1.919,1.844-3.736,3.8-5.727,5.561c-1.531,1.355-2.684,1.511-3.353-0.682c-0.126-0.413,0.209-1.08,0.529-1.466
		c0.157-0.189,0.768-0.009,1.172,0.018c0.372,0.025,0.88,0.241,1.09,0.074c1.212-0.961,2.683-1.816,3.437-3.081
		c0.937-1.573,2.379-2.542,3.553-3.797c0.883-0.944,1.775-1.81,2.243-3.021c0.145-0.375,0.144-0.806,0.21-1.211
		c-0.46,0.009-0.969-0.108-1.371,0.049c-1.596,0.622-3.158,1.33-4.733,2.005c-0.145,0.062-0.304,0.184-0.439,0.163
		c-0.485-0.077-0.962-0.203-1.442-0.311c0.329-0.266,0.619-0.632,0.994-0.781c2.374-0.941,4.77-1.825,7.153-2.745
		c1.125-0.434,2.028-1.015,2.674-2.193c1.047-1.909,2.384-3.663,3.655-5.442c0.455-0.637,1.257-0.972,1.868-0.409
		c0.309,0.285,0.278,1.139,0.135,1.664c-0.206,0.756-0.692,1.432-0.98,2.172c-0.114,0.294-0.15,0.774,0.015,0.979
		c0.174,0.217,0.656,0.337,0.959,0.277c2.644-0.528,5.262-1.2,7.919-1.648c4.139-0.698,8.3-1.265,12.455-1.869
		c2.323-0.337,4.646-0.698,6.981-0.921c0.887-0.085,1.834,0.093,2.701,0.339c0.35,0.099,0.557,0.701,0.829,1.074
		c-0.426,0.148-0.932,0.523-1.265,0.406c-2.081-0.732-4.126-0.599-6.225-0.097c-0.948,0.226-1.969,0.13-2.948,0.254
		c-0.648,0.082-1.28,0.292-1.918,0.452c-0.783,0.196-1.554,0.481-2.348,0.582c-1.826,0.233-3.687,0.254-5.49,0.593
		c-2.002,0.376-3.945,1.051-5.933,1.515c-1.328,0.31-2.682,0.554-4.038,0.692c-2.48,0.252-4.668,2.274-5.307,4.737
		c-0.314,1.208-1.103,2.284-1.55,3.468c-0.46,1.219-0.798,2.489-1.134,3.751c-0.785,2.947-1.726,5.871-2.235,8.867
		c-0.327,1.927-0.954,4.044,0.357,5.927c0.614,0.882,1.355,1.359,2.594,1.327c1.518-0.039,2.791-0.406,4.128-1.117
		c2.866-1.524,5.836-2.856,8.779-4.233c1.404-0.657,2.854-1.216,4.264-1.862c0.718-0.329,1.365-0.825,2.098-1.108
		c0.754-0.291,1.035,0.126,0.883,0.869c-0.271,1.327-0.6,2.645-0.793,3.983c-0.076,0.524,0.15,1.092,0.238,1.64
		c0.49-0.219,1.111-0.316,1.447-0.678c1.168-1.258,1.291-2.995,1.916-4.507c0.281-0.678,0.921-1.241,1.508-1.722
		c0.087-0.072,0.943,0.511,1.167,0.937c1.054,2,1.927,4.098,3.028,6.071c1.005,1.802,2.864,2.3,4.722,1.341
		c0.854-0.44,1.558-1.164,2.353-1.726c0.8-0.566,1.638-1.078,2.44-1.641c0.541-0.379,0.615-0.735,0.171-1.375
		c-0.549-0.794-0.933-1.743-1.199-2.679c-0.23-0.811,0.121-1.256,1.119-1.085c1.69,0.29,2.307,1.688,3.185,2.839
		c0.27,0.354,0.656,1.002,0.851,0.954c0.444-0.109,0.917-0.492,1.174-0.894c1.107-1.732,2.103-3.535,3.216-5.263
		c0.487-0.757,1.096-1.467,1.773-2.056c0.333-0.29,1.11-0.506,1.398-0.317c0.475,0.311,0.924,0.949,1.005,1.504
		c0.102,0.701-0.537,1.071-1.101,0.59c-0.721-0.614-1.071-0.267-1.581,0.224c-1.317,1.27-1.817,2.995-2.673,4.525
		c-1.264,2.259-1.847,4.693-2.236,7.202c-0.158,1.018-0.224,2.051-0.389,3.068c-0.125,0.765-0.483,1.462-1.403,1.275
		c-0.854-0.174-1.347-0.805-1.42-1.714c-0.115-1.431-0.212-2.864-0.375-4.289C326.215,63.637,325.97,63.231,325.814,62.816z"/>
	<path fill="#333333" d="M51.093,47.539c-0.513,1.271-1.409,1.36-2.286,1.377c-4.557,0.089-9.114,0.162-13.671,0.214
		c-1.713,0.019-2.089,0.364-1.871,2.067c0.771,6.007,2.177,11.832,4.927,17.281c0.439,0.869,1.047,2.068,0,2.71
		c-0.885,0.543-1.508-0.611-2.003-1.248c-1.099-1.417-2.049-2.948-3.117-4.391c-1.42-1.919-2.888-3.804-4.347-5.694
		c-1.748-2.266-3.508-4.523-5.263-6.783c-0.123-0.158-0.218-0.355-0.375-0.465c-0.644-0.448-1.422-1.33-1.938-1.202
		c-0.98,0.244-1.45,1.292-1.462,2.382c-0.028,2.747-0.026,5.494-0.07,8.241c-0.026,1.636-0.094,3.272-0.199,4.904
		c-0.02,0.306-0.255,0.791-0.475,0.844c-0.323,0.078-0.791-0.066-1.077-0.277c-1.134-0.838-1.309-2.185-1.488-3.418
		c-0.225-1.544-0.347-3.139-0.232-4.691c0.397-5.37,0.855-10.737,1.41-16.092c0.39-3.761,1.317-7.498,1.357-11.252
		c0.029-2.705,0.332-5.349,0.58-8.013c0.095-1.027,0.334-2.059,0.654-3.041c0.171-0.527,0.561-1.085,1.012-1.398
		c1.139-0.791,2.144-1.599,2.371-3.094c0.123-0.808,0.546-1.365,1.534-1.34c1.085,0.027,2.42-0.488,2.861,0.985
		c0.601,2.009,1.144,4.062,1.43,6.134c0.588,4.26,1.048,8.54,1.447,12.822c0.265,2.849,0.358,5.715,0.478,8.576
		c0.074,1.761,0.546,2.215,2.3,2.274c4.792,0.161,9.585,0.322,14.37,0.605C48.997,46.618,50.016,47.188,51.093,47.539z
		 M25.145,46.379c0-0.02,0-0.04,0-0.06c1.033,0,2.067,0.032,3.098-0.009c0.968-0.039,1.489-0.58,1.348-1.565
		c-0.231-1.61-0.595-3.203-0.773-4.817c-0.308-2.803-0.502-5.617-0.77-8.425c-0.306-3.202-0.586-6.409-0.999-9.598
		c-0.119-0.921-0.605-1.813-1.014-2.674c-0.322-0.678-0.834-0.748-1.244-0.048c-0.381,0.651-0.527,1.539-1.059,1.982
		c-1.718,1.428-1.736,3.302-1.664,5.238c0.151,4.065-0.814,7.999-1.353,11.984c-0.265,1.962-0.43,3.951-0.447,5.93
		c-0.013,1.435,0.784,2.036,2.244,2.06C23.39,46.391,24.268,46.379,25.145,46.379z M28.214,49.327
		c-0.445,0.023-0.69,0.008-0.923,0.052c-0.589,0.111-1.173,0.243-1.757,0.377c-1.316,0.302-1.544,0.742-1.036,2.02
		c0.102,0.256,0.237,0.507,0.403,0.727c1.905,2.528,3.81,5.056,5.742,7.563c0.227,0.295,0.592,0.595,0.939,0.665
		c1.081,0.22,1.63-0.624,1.083-1.803c-0.769-1.657-0.116-3.622-1.341-5.22c-0.518-0.676-0.352-1.837-0.695-2.698
		C30.185,49.892,29.324,49.202,28.214,49.327z"/>
	<path fill="#333333" d="M246.523,30.955c1.383,0.665,1.419,2.122,1.64,3.252c0.459,2.338,0.588,4.742,0.842,7.12
		c0.147,1.375,0.245,2.755,0.419,4.127c0.169,1.337,0.122,2.583-0.56,3.829c-0.352,0.643-0.233,1.527-0.437,2.272
		c-0.714,2.607-1.535,5.173-2.069,7.843c-0.327,1.632-0.057,3.56-1.514,4.917c-0.242,0.226-0.094,0.84-0.188,1.261
		c-0.197,0.883-0.336,1.799-0.685,2.622c-0.292,0.688-0.882,0.553-1.362,0.07c-0.894-0.9-0.737-2.048-0.465-3.052
		c0.435-1.607,0.066-3.048-0.343-4.571c-0.284-1.058-0.22-2.208-0.323-3.316c-0.177-1.9-0.18-3.839-0.587-5.688
		c-0.618-2.802-1.524-5.539-2.295-8.308c-0.095-0.342-0.188-0.712-0.156-1.058c0.221-2.409-0.395-4.665-0.984-6.977
		c-0.518-2.035-0.73-4.21-0.65-6.306c0.036-0.947,0.917-2.122,1.752-2.727c2.037-1.476,4.371-2.424,6.936-2.577
		c0.536-0.032,1.147,0.055,1.62,0.293c2.341,1.181,4.806,2.207,6.926,3.713c2.557,1.817,4.581,4.208,4.904,7.582
		c0.114,1.188,0.378,2.381,0.33,3.562c-0.066,1.66-0.159,3.37-0.621,4.947c-0.329,1.122-1.113,2.259-2.004,3.031
		c-1.202,1.041-2.681,1.774-4.086,2.558c-0.386,0.215-1.035,0.33-1.376,0.145c-0.326-0.177-0.669-0.92-0.541-1.208
		c0.236-0.53,0.803-1.27,1.247-1.281c1.139-0.026,1.742-0.697,2.386-1.398c1.068-1.165,2.418-2.248,2.434-3.961
		c0.017-1.83-0.203-3.671-0.45-5.49c-0.125-0.918-0.417-1.86-0.844-2.683c-1.251-2.415-3.502-3.69-5.812-4.895
		c-1.039-0.542-2.033-1.187-2.99-1.866c-1.001-0.71-1.996-0.816-2.978-0.102c-1.465,1.066-2.925,2.149-4.283,3.343
		c-0.368,0.324-0.557,1.096-0.494,1.622c0.242,2.006,0.644,3.993,0.943,5.993c0.286,1.912,0.436,3.847,0.8,5.743
		c0.385,2.003,1.026,3.956,1.417,5.957c0.402,2.056,0.638,4.144,0.944,6.219c0.011,0.077-0.046,0.184-0.011,0.235
		c0.694,1.018,0.352,2.175,0.471,3.271c0.032,0.299,0.317,0.57,0.486,0.854c0.244-0.226,0.616-0.409,0.71-0.686
		c0.328-0.972,0.612-1.965,0.815-2.97c0.288-1.424,0.475-2.868,0.732-4.298c0.118-0.659,0.423-1.306,0.431-1.961
		c0.036-3.041,0.318-6.076-0.352-9.117c-0.368-1.671-0.214-3.455-0.335-5.185c-0.047-0.672-0.141-1.355-0.325-2.001
		C245.273,32.546,245.638,31.722,246.523,30.955z"/>
	<path fill="#333333" d="M46.515,62.921c0.188,0.439,0.376,0.878,0.565,1.317c0.378-0.33,0.9-0.586,1.111-1
		c1.563-3.081,3.058-6.196,4.587-9.295c0.771-1.562,1.569-3.111,2.355-4.665c0.072-0.142,0.133-0.294,0.231-0.417
		c0.503-0.634,0.882-1.591,1.968-0.955c0.645,0.377,0.772,1.612,0.176,2.39c-0.78,1.017-1.641,1.941-1.688,3.345
		c-0.011,0.316-0.494,0.598-0.705,0.93c-0.571,0.902-1.196,1.784-1.651,2.744c-1.248,2.636-2.421,5.307-3.619,7.965
		c-0.455,1.01-0.93,2.014-1.342,3.042c-0.687,1.717-2.545,1.321-3.143,0.09c-0.598-1.231-0.986-2.587-1.303-3.927
		c-0.455-1.926-0.696-3.902-1.155-5.827c-0.361-1.514-0.063-2.692,1.017-3.53c0.795-0.618,1.322-0.143,1.454,0.47
		c0.515,2.401,0.892,4.832,1.32,7.252C46.634,62.874,46.575,62.897,46.515,62.921z"/>
	<path fill="#333333" d="M64.903,67.292c1.133-0.857,2.188-1.729,3.318-2.491c1.497-1.009,3.076-1.899,4.557-2.93
		c0.215-0.15,0.269-0.937,0.079-1.193c-0.734-0.989-1.557-1.921-2.42-2.803c-1.841-1.883-1.751-3.192,0.396-4.639
		c0.454-0.306,0.893-0.672,1.395-0.853c0.258-0.093,0.766,0.068,0.93,0.286c0.138,0.184,0.04,0.682-0.123,0.931
		c-0.996,1.531-0.928,1.784,0.466,2.996c0.617,0.536,1.085,1.257,1.563,1.934c0.612,0.869,1.432,1.087,2.366,0.657
		c1.746-0.805,3.507-1.581,5.284-2.315c0.255-0.105,0.636,0.093,0.958,0.151c-0.212,0.353-0.342,0.889-0.651,1.028
		c-1.502,0.678-3.08,1.189-4.575,1.879c-1.091,0.503-1.775,1.33-1.844,2.681c-0.114,2.234-1.318,4.06-3.265,4.903
		c-2.346,1.017-4.9,1.839-7.509,0.575c-0.143-0.069-0.284-0.15-0.407-0.249C65.299,67.744,65.204,67.616,64.903,67.292z
		 M73.927,63.349c-0.038-0.092-0.081-0.347-0.23-0.493c-0.092-0.09-0.413-0.091-0.518,0c-0.92,0.797-1.826,1.611-2.703,2.454
		c-0.131,0.126-0.196,0.494-0.108,0.635c0.125,0.2,0.414,0.398,0.645,0.413C71.867,66.415,73.884,64.386,73.927,63.349z"/>
	<path fill="#333333" d="M347.516,67.44c1.459-0.961,2.254-2.343,3.87-2.943c1.501-0.557,2.804-1.68,4.131-2.642
		c0.203-0.147,0.239-0.909,0.05-1.147c-0.816-1.027-1.732-1.975-2.633-2.933c-1.27-1.35-1.488-2.685-0.437-3.809
		c0.585-0.626,1.346-1.125,2.107-1.532c0.291-0.155,0.922-0.016,1.176,0.224c0.163,0.154,0.037,0.817-0.162,1.115
		c-0.91,1.358-0.878,1.574,0.294,2.656c0.667,0.616,1.261,1.325,1.81,2.052c0.717,0.951,1.479,1.128,2.555,0.628
		c1.676-0.779,3.379-1.503,5.091-2.198c0.269-0.109,0.649,0.056,0.977,0.094c-0.227,0.352-0.375,0.876-0.695,1.022
		c-0.964,0.439-2.041,0.639-2.989,1.103c-0.979,0.48-1.901,1.109-2.762,1.783c-0.32,0.251-0.54,0.808-0.558,1.236
		c-0.103,2.457-1.272,4.441-3.374,5.386c-2.366,1.064-4.989,1.814-7.616,0.489C348.113,67.904,347.908,67.717,347.516,67.44z
		 M356.834,63.543c-0.219-0.329-0.33-0.589-0.524-0.744c-0.081-0.065-0.381,0.044-0.512,0.155c-0.842,0.721-1.689,1.44-2.474,2.22
		c-0.187,0.186-0.143,0.603-0.206,0.914c0.326,0.064,0.728,0.279,0.963,0.161c0.597-0.3,1.18-0.688,1.655-1.155
		C356.172,64.665,356.46,64.087,356.834,63.543z"/>
	<path fill="#333333" d="M342.191,64.861c2.497,0.161,4.184-1.217,5.869-2.604c0.213-0.175,0.439-0.423,0.681-0.452
		c0.353-0.043,0.726,0.082,1.091,0.136c-0.119,0.308-0.152,0.717-0.373,0.903c-0.606,0.508-1.31,0.897-1.939,1.38
		c-0.948,0.727-1.854,1.508-2.799,2.239c-1.64,1.268-4.28,1.093-6.017-0.013c-1.623-1.033-2.511-2.484-3.226-4.139
		c-0.106-0.245-0.187-0.569-0.119-0.81c0.993-3.51,2.118-6.936,5.692-8.785c1.318-0.682,2.424-0.215,2.843,1.211
		c0.603,2.055-0.542,3.462-1.812,4.749c-0.801,0.811-1.8,1.432-2.734,2.105c-0.669,0.483-0.937,0.947-0.237,1.636
		c0.583,0.574,1.051,1.273,1.667,1.804C341.154,64.543,341.714,64.654,342.191,64.861z M339.316,58.445
		c0.376-0.222,0.62-0.302,0.771-0.466c0.693-0.755,1.392-1.509,2.016-2.32c0.192-0.249,0.152-0.676,0.219-1.021
		c-0.366,0-0.778-0.11-1.091,0.019c-1.346,0.559-1.76,1.861-2.254,3.065C338.913,57.877,339.179,58.168,339.316,58.445z"/>
	<path fill="#333333" d="M273.658,67.858c-1.896-0.307-3.688-0.411-5.361-0.911c-2.869-0.857-3.272-2.949-3.003-5.634
		c0.235-2.347,1.268-4.394,3.434-5.579c0.635-0.348,1.502-0.373,2.257-0.351c0.275,0.008,0.59,0.557,0.758,0.919
		c0.04,0.086-0.403,0.511-0.685,0.613c-1.983,0.719-2.605,2.381-2.778,4.213c-0.16,1.698,0.714,3.034,2.191,3.817
		c0.909,0.482,1.967,0.917,2.965,0.931c0.934,0.014,1.471,0.323,1.696,1.064C275.173,67.08,274.203,67.527,273.658,67.858z"/>
	<path fill="#333333" d="M60.248,54.218c1.45,1.413,1.083,3.305,1.481,4.959c0.165,0.685,0.135,1.436,0.086,2.149
		c-0.084,1.22,0.339,2.241,0.974,3.242c0.172,0.271,0.217,0.902,0.044,1.056c-0.359,0.318-1.029,0.703-1.345,0.561
		c-0.608-0.275-1.2-0.813-1.551-1.392c-1.395-2.304-1.794-4.929-1.929-7.539C57.939,55.921,58.641,54.675,60.248,54.218z"/>
	<path fill="#333333" d="M260.411,54.166c0.32,1.218,0.69,2.393,0.924,3.595c0.189,0.973,0.3,1.978,0.291,2.968
		c-0.012,1.382,0.176,2.662,0.937,3.862c0.179,0.283,0.118,0.973-0.109,1.195c-0.294,0.289-0.945,0.51-1.294,0.375
		c-0.506-0.195-0.993-0.663-1.291-1.138c-1.493-2.377-1.826-5.098-2.123-7.806C257.62,56.068,258.739,54.771,260.411,54.166z"/>
	<path fill="#333333" d="M262.927,45.697c-0.812-0.714-1.717-1.414-2.478-2.246c-0.189-0.207-0.02-0.899,0.176-1.264
		c0.319-0.595,0.819-0.502,1.278-0.071c0.49,0.461,1.016,0.886,1.476,1.374C264.051,44.202,264.017,44.891,262.927,45.697z"/>
	<path fill="#333333" d="M60.125,41.484c0.566,0.717,1.272,1.481,1.805,2.351c0.208,0.34,0.027,0.918,0.023,1.388
		c-0.378-0.009-0.823,0.105-1.121-0.054c-0.601-0.323-1.257-0.695-1.649-1.225C58.295,42.741,58.382,42.586,60.125,41.484z"/>
</g>
<g>
	<path fill="#FFFFFF" d="M97.697,74.003c-0.777,0.042-1.696,0.329-2.392,0.053c-0.54-0.214-0.92-1.087-1.167-1.743
		c-1.097-2.924-0.609-6-0.654-9.007c-0.021-1.385,0.56-2.782,0.893-4.168c0.469-1.955,0.936-3.911,1.448-5.855
		c1.105-4.197,2.278-8.377,3.332-12.586c0.246-0.984,0.151-2.058,0.169-3.092c0.012-0.701,0.01-1.345,0.787-1.719
		c0.232-0.112,0.435-0.487,0.474-0.766c0.219-1.575,0.391-3.156,0.565-4.737c0.139-1.267,0.64-2.594,1.8-2.884
		c1.177-0.294,2.307-0.614,3.43-1.057c0.177-0.07,0.799,0.437,0.859,0.747c0.09,0.461,0.006,1.082-0.254,1.464
		c-1.068,1.564-1.459,3.277-1.429,5.133c0.004,0.264-0.075,0.587-0.236,0.787c-1.587,1.979-1.273,4.401-1.585,6.674
		c-0.13,0.944-0.283,1.9-0.264,2.848c0.039,2.018,0.07,4.047,0.319,6.045c0.23,1.845,0.652,3.68,1.154,5.474
		c0.418,1.493,1.086,2.914,1.621,4.376c0.43,1.175,0.779,2.382,1.255,3.538c0.427,1.036,1.207,1.036,1.976,0.198
		c1.359-1.482,1.954-3.289,2.569-5.15c0.743-2.249,1.764-4.404,2.632-6.613c0.506-1.287,0.934-2.604,1.418-3.9
		c0.718-1.923,0.082-3.816-0.237-5.67c-0.408-2.369-0.473-4.702,0.187-6.982c0.235-0.811,0.966-1.572,1.653-2.132
		c0.8-0.652,2.227,0.532,2.175,1.884c-0.053,1.376-0.348,2.741-0.476,4.116c-0.179,1.931-0.31,3.867-0.443,5.802
		c-0.06,0.875-0.169,1.763-0.088,2.629c0.161,1.735,0.33,3.482,0.697,5.181c0.381,1.765,0.888,3.521,1.541,5.203
		c0.801,2.062,2.086,3.876,4.026,5.003c1.749,1.017,4.971-0.703,5.659-2.621c0.877-2.446,1.624-5.035,4.101-6.523
		c0.826-0.496,1.991-0.407,2.542,0.355c0.129,0.178,0.295,0.514,0.221,0.615c-0.138,0.189-0.445,0.373-0.67,0.36
		c-1.514-0.091-2.311,0.97-2.831,2.043c-0.754,1.557-1.236,3.245-0.78,5.051c0.219,0.869,0.632,1.051,1.202,0.403
		c0.747-0.85,1.471-1.749,2.024-2.729c0.361-0.64,0.777-1.177,1.431-0.948c0.47,0.164,0.873,0.775,1.118,1.277
		c0.587,1.202,0.85,2.625,1.645,3.646c0.815,1.046,2.926,1.526,4.538,0.109c1.026-0.902,2.118-1.734,3.095-2.686
		c0.295-0.288,0.473-0.896,0.409-1.312c-0.143-0.93,0.245-2.168,1.022-2.169c0.509-0.001,1.062,0.635,1.512,1.072
		c0.232,0.225,0.282,0.636,0.503,1.184c0.464-0.356,0.879-0.609,1.214-0.943c1.976-1.973,3.32-1.185,4.284,0.892
		c0.557,1.201,1.335,2.169,2.557,2.735c0.754,0.349,1.377,0.394,2.214-0.094c0.899-0.524,2.113-0.473,3.112-0.867
		c1.867-0.737,3.772-1.307,5.098-3.134c1.259-1.735,2.938-3.175,4.498-4.676c0.574-0.552,2.451,0.193,2.563,0.972
		c0.029,0.205-0.234,0.536-0.45,0.674c-0.397,0.254-0.857,0.413-1.294,0.604c-1.684,0.738-2.403,2.21-2.822,3.851
		c-0.308,1.204,0.948,2.215,2.139,1.632c1.583-0.776,3.113-1.694,4.562-2.702c1.307-0.91,1.651-2.102,1.085-3.581
		c-1.715-4.48-1.205-9.132-1.007-13.727c0.074-1.733,1.059-3.408,1.39-5.155c0.428-2.254,1.871-3.814,3.26-5.443
		c1.935-2.268,5.228-1.66,6.111,1.228c0.374,1.222,0.323,2.588,0.381,3.892c0.175,3.959-1.732,7.346-3.035,10.902
		c-0.347,0.946-0.469,1.975-0.815,2.921c-0.665,1.818-1.462,3.589-2.106,5.415c-0.199,0.565-0.186,1.261-0.084,1.866
		c0.399,2.381,0.749,4.763,2.353,6.766c1.281,1.6,2.491,1.75,3.799,0.181c0.532-0.638,0.999-1.333,1.478-2.014
		c0.135-0.192,0.344-0.478,0.287-0.636c-0.407-1.116,0.267-2.043,0.424-3.059c0.533-3.46,2.612-5.679,5.528-7.262
		c0.329-0.179,0.968-0.055,1.336,0.153c1.05,0.594,1.505,2.396,1.012,3.524c-0.85,1.945-2.383,3.263-4.105,4.361
		c-1.319,0.841-1.41,1.063-0.413,2.241c0.331,0.391,0.558,0.89,0.938,1.216c1.237,1.064,3.308,1.002,4.839,0.19
		c1.186-0.629,2.193-1.287,3.007-2.426c0.702-0.982,0.782-1.921,0.775-3.012c-0.03-4.381-0.033-8.763,0.01-13.144
		c0.006-0.615,0.377-1.217,0.493-1.841c0.268-1.443,0.423-2.909,0.738-4.341c0.226-1.024,0.595-2.023,0.976-3.005
		c0.587-1.515,1.079-3.1,1.905-4.48c0.942-1.573,2.134-3.017,3.356-4.394c0.727-0.82,1.762-1.357,2.581-2.106
		c0.791-0.724,1.639-0.986,2.62-0.588c1.241,0.502,2.056,1.293,2.357,2.746c0.427,2.064-0.268,3.848-0.977,5.65
		c-0.959,2.437-2.059,4.82-2.995,7.265c-1.099,2.871-1.963,5.836-3.156,8.665c-1.277,3.028-2.828,5.94-4.235,8.914
		c-0.195,0.412-0.489,1.014-0.332,1.318c0.931,1.803,1.048,3.974,2.73,5.459c1.453,1.282,2.778,1.613,4.353,0.463
		c0.988-0.721,1.832-1.64,2.744-2.466c0.444-0.402,0.897-0.793,1.345-1.189c0.115,0.105,0.231,0.21,0.346,0.316
		c-0.328,0.445-0.617,0.926-0.99,1.329c-1.293,1.397-2.631,2.752-3.917,4.155c-0.373,0.407-0.629,0.824-1.268,0.405
		c-0.178-0.117-0.544-0.056-0.778,0.039c-1.547,0.624-3.058,0.12-4.187-0.712c-0.917-0.675-1.313-2.048-1.962-3.098
		c-0.282-0.456-0.621-0.876-0.895-1.258c-1.566,1.109-2.953,2.164-4.412,3.109c-3.898,2.524-5.56,1.604-8.348-0.79
		c-0.993-0.853-1.054-0.896-1.581,0.322c-1.181,2.726-2.221,3.441-5.154,3.208c-1.783-0.142-2.888-1.419-3.689-2.878
		c-0.509-0.927-0.764-1.989-1.181-2.971c-0.439-1.035-0.92-1.076-1.824-0.478c-1.685,1.115-3.344,2.347-5.185,3.128
		c-1.637,0.694-4.106,0.44-5.108-1.723c-0.147-0.317-0.341-0.611-0.491-0.878c-1.917,0.953-3.679,2.057-5.595,2.711
		c-1.6,0.546-3.384,0.774-5.081,0.752c-1.545-0.02-2.649-1.148-3.513-2.441c-0.357-0.535-0.89-0.952-1.343-1.423
		c-0.526,0.679-1.115,1.32-1.555,2.05c-0.255,0.424-0.316,0.985-0.385,1.495c-0.104,0.76-0.582,0.986-1.25,1.011
		c-0.707,0.027-1.13-0.276-1.242-1.006c-0.041-0.27-0.178-0.527-0.28-0.787c-0.273-0.698-0.564-0.913-1.313-0.376
		c-1.676,1.2-3.431,2.293-5.18,3.386c-1.389,0.868-2.624,0.225-3.712-0.617c-0.936-0.724-1.738-1.621-2.658-2.496
		c-0.735,0.695-1.442,1.381-2.168,2.046c-1.197,1.095-2.6,0.796-3.269-0.708c-0.285-0.641-0.505-1.311-0.751-1.958
		c-0.886,0.452-1.659,0.815-2.402,1.231c-2.537,1.421-6.992-0.204-8.321-2.583c-1.246-2.23-2.309-4.423-2.119-7.085
		c0.068-0.962-0.266-1.96-0.48-2.928c-0.044-0.201-0.387-0.499-0.556-0.476c-0.321,0.043-0.769,0.207-0.894,0.457
		c-0.457,0.916-0.916,1.858-1.172,2.843c-0.959,3.694-2.186,7.289-4.181,10.546c-0.447,0.73-1.618,1.488-2.387,1.423
		c-0.862-0.073-1.925-0.897-2.406-1.694c-1.078-1.786-2.018-3.698-2.701-5.668c-0.707-2.039-1.048-4.205-1.541-6.317
		c-0.225-0.966-0.413-1.94-0.665-2.899c-0.046-0.176-0.418-0.445-0.466-0.413c-0.27,0.181-0.622,0.404-0.7,0.682
		c-0.366,1.294-0.622,2.618-0.975,3.916c-0.249,0.917-0.549,1.825-0.897,2.709c-1.146,2.913-1.48,5.907-0.976,8.995
		c0.032,0.195,0.179,0.405,0.137,0.574c-0.597,2.366,0.188,4.601,0.618,6.87C97.827,73.744,97.764,73.824,97.697,74.003z
		 M209.296,54.426c0.439-0.68,0.771-1.066,0.964-1.512c1.05-2.423,2.071-4.859,3.093-7.294c0.798-1.901,1.587-3.807,2.375-5.713
		c0.901-2.179,1.782-4.366,2.7-6.538c0.672-1.59,1.556-3.123,1.536-4.908c-0.009-0.833,0.033-1.897-0.432-2.446
		c-1.033-1.22-1.919-1.11-3.198-0.041c-0.214,0.179-0.495,0.291-0.674,0.496c-1.011,1.156-2.21,2.212-2.959,3.522
		c-2.041,3.57-3.004,7.539-3.591,11.569c-0.354,2.428-0.466,4.9-0.53,7.357c-0.039,1.495,0.213,2.999,0.353,4.497
		C208.954,53.634,209.083,53.844,209.296,54.426z M182.703,48.489c-0.123,0.024-0.246,0.049-0.369,0.073
		c0.293,1.253,0.568,2.511,0.898,3.755c0.058,0.217,0.317,0.456,0.535,0.527c0.123,0.04,0.422-0.204,0.519-0.386
		c0.483-0.905,1.043-1.792,1.36-2.757c1.153-3.512,2.354-7.019,3.26-10.598c0.429-1.695,0.332-3.551,0.278-5.328
		c-0.032-1.052-1.703-1.906-2.455-1.327c-1.49,1.148-2.894,2.508-3.381,4.345c-0.614,2.318-0.882,4.728-1.284,7.101
		c-0.031,0.186,0.056,0.391,0.083,0.588C182.332,45.818,182.517,47.154,182.703,48.489z M196.544,57.429
		c0.397-0.21,0.647-0.275,0.798-0.434c0.757-0.797,1.517-1.594,2.205-2.448c0.163-0.202,0.053-0.624,0.068-0.945
		c-0.33,0.001-0.708-0.104-0.982,0.02c-1.296,0.585-1.789,1.836-2.321,3.023C196.236,56.816,196.443,57.112,196.544,57.429z"/>
	<path fill="#FFFFFF" d="M324.814,61.816c-1.346,1.005-2.443,2.102-3.762,2.746c-2.093,1.021-4.21,2.223-6.745,1.582
		c-1.529-0.387-2.396-1.564-3.252-2.674c-1.457-1.89-1.397-1.949-3.081-0.296c-0.626,0.614-1.228,1.255-1.813,1.909
		c-1.374,1.533-3.08,1.321-3.778-0.574c-0.487-1.322-0.858-2.714-0.233-4.141c0.101-0.231,0.014-0.543,0.014-0.966
		c-1.617-0.002-2.989,0.622-4.332,1.33c-2.271,1.196-4.507,2.461-6.805,3.602c-1.719,0.853-3.466,1.699-5.286,2.286
		c-1.719,0.554-4.796,0.386-5.938-1.636c-0.514-0.91-0.891-2.103-0.793-3.115c0.257-2.644,1.036-5.247,1.178-7.889
		c0.121-2.24,1.4-4.093,1.555-6.257c0.027-0.378-0.168-0.772-0.26-1.159c-0.337,0.154-0.747,0.231-0.999,0.473
		c-1.919,1.844-3.736,3.8-5.727,5.561c-1.531,1.355-2.684,1.511-3.353-0.682c-0.126-0.413,0.209-1.08,0.529-1.466
		c0.157-0.189,0.768-0.009,1.172,0.018c0.372,0.025,0.88,0.241,1.09,0.074c1.212-0.961,2.683-1.816,3.437-3.081
		c0.937-1.573,2.379-2.542,3.553-3.797c0.883-0.944,1.775-1.81,2.243-3.021c0.145-0.375,0.144-0.806,0.21-1.211
		c-0.46,0.009-0.969-0.108-1.371,0.049c-1.596,0.622-3.158,1.33-4.733,2.005c-0.145,0.062-0.304,0.184-0.439,0.163
		c-0.485-0.077-0.962-0.203-1.442-0.311c0.329-0.266,0.619-0.632,0.994-0.781c2.374-0.941,4.77-1.825,7.153-2.745
		c1.125-0.434,2.028-1.015,2.674-2.193c1.047-1.909,2.384-3.663,3.655-5.442c0.455-0.637,1.257-0.972,1.868-0.409
		c0.309,0.285,0.278,1.139,0.135,1.664c-0.206,0.756-0.692,1.432-0.98,2.172c-0.114,0.294-0.15,0.774,0.015,0.979
		c0.174,0.217,0.656,0.337,0.959,0.277c2.644-0.528,5.262-1.2,7.919-1.648c4.139-0.698,8.3-1.265,12.455-1.869
		c2.323-0.337,4.646-0.698,6.981-0.921c0.887-0.085,1.834,0.093,2.701,0.339c0.35,0.099,0.557,0.701,0.829,1.074
		c-0.426,0.148-0.932,0.523-1.265,0.406c-2.081-0.732-4.126-0.599-6.225-0.097c-0.948,0.226-1.969,0.13-2.948,0.254
		c-0.648,0.082-1.28,0.292-1.918,0.452c-0.783,0.196-1.554,0.481-2.348,0.582c-1.826,0.233-3.687,0.254-5.49,0.593
		c-2.002,0.376-3.945,1.051-5.933,1.515c-1.328,0.31-2.682,0.554-4.038,0.692c-2.48,0.252-4.668,2.274-5.307,4.737
		c-0.314,1.208-1.103,2.284-1.55,3.468c-0.46,1.219-0.798,2.489-1.134,3.751c-0.785,2.947-1.726,5.871-2.235,8.867
		c-0.327,1.927-0.954,4.044,0.357,5.927c0.614,0.882,1.355,1.359,2.594,1.327c1.518-0.039,2.791-0.406,4.128-1.117
		c2.866-1.524,5.836-2.856,8.779-4.233c1.404-0.657,2.854-1.216,4.264-1.862c0.718-0.329,1.365-0.825,2.098-1.108
		c0.754-0.291,1.035,0.126,0.883,0.869c-0.271,1.327-0.6,2.645-0.793,3.983c-0.076,0.524,0.15,1.092,0.238,1.64
		c0.49-0.219,1.111-0.316,1.447-0.678c1.168-1.258,1.291-2.995,1.916-4.507c0.281-0.678,0.921-1.241,1.508-1.722
		c0.087-0.072,0.943,0.511,1.167,0.937c1.054,2,1.927,4.098,3.028,6.071c1.005,1.802,2.864,2.3,4.722,1.341
		c0.854-0.44,1.558-1.164,2.353-1.727c0.8-0.566,1.638-1.078,2.44-1.641c0.541-0.379,0.615-0.735,0.171-1.375
		c-0.549-0.794-0.933-1.743-1.199-2.679c-0.23-0.811,0.121-1.256,1.119-1.085c1.69,0.29,2.307,1.688,3.185,2.839
		c0.27,0.354,0.656,1.002,0.851,0.954c0.444-0.109,0.917-0.492,1.174-0.894c1.107-1.732,2.103-3.535,3.216-5.263
		c0.487-0.757,1.096-1.467,1.773-2.056c0.333-0.29,1.11-0.506,1.398-0.317c0.475,0.311,0.924,0.949,1.005,1.504
		c0.102,0.701-0.537,1.071-1.101,0.59c-0.721-0.614-1.071-0.267-1.581,0.224c-1.317,1.27-1.817,2.995-2.673,4.525
		c-1.264,2.259-1.847,4.693-2.236,7.202c-0.158,1.018-0.224,2.051-0.389,3.068c-0.125,0.765-0.483,1.462-1.403,1.275
		c-0.854-0.174-1.347-0.805-1.42-1.714c-0.115-1.431-0.212-2.864-0.375-4.289C325.215,62.637,324.97,62.231,324.814,61.816z"/>
	<path fill="#FFFFFF" d="M50.093,46.539c-0.513,1.271-1.409,1.36-2.286,1.377c-4.557,0.089-9.114,0.162-13.671,0.214
		c-1.713,0.019-2.089,0.364-1.871,2.067c0.771,6.007,2.177,11.832,4.927,17.281c0.439,0.869,1.047,2.068,0,2.71
		c-0.885,0.543-1.508-0.611-2.003-1.248c-1.099-1.417-2.049-2.948-3.117-4.391c-1.42-1.919-2.888-3.804-4.347-5.694
		c-1.748-2.266-3.508-4.523-5.263-6.783c-0.123-0.158-0.218-0.355-0.375-0.465c-0.644-0.448-1.422-1.33-1.938-1.202
		c-0.98,0.244-1.45,1.292-1.462,2.382c-0.028,2.747-0.026,5.494-0.07,8.241c-0.026,1.636-0.094,3.272-0.199,4.904
		c-0.02,0.306-0.255,0.791-0.475,0.844c-0.323,0.078-0.791-0.066-1.077-0.277c-1.134-0.838-1.309-2.185-1.488-3.418
		c-0.225-1.544-0.347-3.139-0.232-4.691c0.397-5.37,0.855-10.737,1.41-16.092c0.39-3.761,1.317-7.498,1.357-11.252
		c0.029-2.705,0.332-5.349,0.58-8.013c0.095-1.027,0.334-2.059,0.654-3.041c0.171-0.527,0.561-1.085,1.012-1.398
		c1.139-0.791,2.144-1.599,2.371-3.094c0.123-0.808,0.546-1.365,1.534-1.34c1.085,0.027,2.42-0.488,2.861,0.985
		c0.601,2.009,1.144,4.062,1.43,6.134c0.588,4.26,1.048,8.54,1.447,12.822c0.265,2.849,0.358,5.715,0.478,8.576
		c0.074,1.761,0.546,2.215,2.3,2.274c4.792,0.161,9.585,0.322,14.37,0.605C47.997,45.618,49.016,46.188,50.093,46.539z
		 M24.145,45.379c0-0.02,0-0.04,0-0.06c1.033,0,2.067,0.032,3.098-0.009c0.968-0.039,1.489-0.58,1.348-1.565
		c-0.231-1.61-0.595-3.203-0.773-4.817c-0.308-2.803-0.502-5.617-0.77-8.425c-0.306-3.202-0.586-6.409-0.999-9.598
		c-0.119-0.921-0.605-1.813-1.014-2.674c-0.322-0.678-0.834-0.748-1.244-0.048c-0.381,0.651-0.527,1.539-1.059,1.982
		c-1.718,1.428-1.736,3.302-1.664,5.238c0.151,4.065-0.814,7.999-1.353,11.984c-0.265,1.962-0.43,3.951-0.447,5.93
		c-0.013,1.435,0.784,2.036,2.244,2.06C22.39,45.391,23.268,45.379,24.145,45.379z M27.214,48.327
		c-0.445,0.023-0.69,0.008-0.923,0.052c-0.589,0.111-1.173,0.243-1.757,0.377c-1.316,0.302-1.544,0.742-1.036,2.02
		c0.102,0.256,0.237,0.507,0.403,0.727c1.905,2.528,3.81,5.056,5.742,7.563c0.227,0.295,0.592,0.595,0.939,0.665
		c1.081,0.22,1.63-0.624,1.083-1.803c-0.769-1.657-0.116-3.622-1.341-5.22c-0.518-0.676-0.352-1.837-0.695-2.698
		C29.185,48.892,28.324,48.202,27.214,48.327z"/>
	<path fill="#FFFFFF" d="M245.523,29.955c1.383,0.665,1.419,2.122,1.64,3.252c0.459,2.338,0.588,4.742,0.842,7.12
		c0.147,1.375,0.245,2.755,0.419,4.127c0.169,1.337,0.122,2.583-0.56,3.829c-0.352,0.643-0.233,1.527-0.437,2.272
		c-0.714,2.607-1.535,5.173-2.069,7.843c-0.327,1.632-0.057,3.56-1.514,4.917c-0.242,0.226-0.094,0.84-0.188,1.261
		c-0.197,0.883-0.336,1.799-0.685,2.622c-0.292,0.688-0.882,0.553-1.362,0.07c-0.894-0.9-0.737-2.048-0.465-3.052
		c0.435-1.607,0.066-3.048-0.343-4.571c-0.284-1.058-0.22-2.208-0.323-3.316c-0.177-1.9-0.18-3.839-0.587-5.688
		c-0.618-2.802-1.524-5.539-2.295-8.308c-0.095-0.342-0.188-0.712-0.156-1.058c0.221-2.409-0.395-4.665-0.984-6.977
		c-0.518-2.035-0.73-4.21-0.65-6.306c0.036-0.947,0.917-2.122,1.752-2.727c2.037-1.476,4.371-2.424,6.936-2.577
		c0.536-0.032,1.147,0.055,1.62,0.293c2.341,1.181,4.806,2.207,6.926,3.713c2.557,1.817,4.581,4.208,4.904,7.582
		c0.114,1.188,0.378,2.381,0.33,3.562c-0.066,1.66-0.159,3.37-0.621,4.947c-0.329,1.122-1.113,2.259-2.004,3.031
		c-1.202,1.041-2.681,1.774-4.086,2.558c-0.386,0.215-1.035,0.33-1.376,0.145c-0.326-0.177-0.669-0.92-0.541-1.208
		c0.236-0.53,0.803-1.27,1.247-1.281c1.139-0.026,1.742-0.697,2.386-1.398c1.068-1.165,2.418-2.248,2.434-3.961
		c0.017-1.83-0.203-3.671-0.45-5.49c-0.125-0.918-0.417-1.86-0.844-2.683c-1.251-2.415-3.502-3.69-5.812-4.895
		c-1.039-0.542-2.033-1.187-2.99-1.866c-1.001-0.71-1.996-0.816-2.978-0.102c-1.465,1.066-2.925,2.149-4.283,3.343
		c-0.368,0.324-0.557,1.096-0.494,1.622c0.242,2.006,0.644,3.993,0.943,5.993c0.286,1.912,0.436,3.847,0.8,5.743
		c0.385,2.003,1.026,3.956,1.417,5.957c0.402,2.056,0.638,4.144,0.944,6.219c0.011,0.077-0.046,0.184-0.011,0.235
		c0.694,1.018,0.352,2.175,0.471,3.271c0.032,0.299,0.317,0.57,0.486,0.854c0.244-0.226,0.616-0.409,0.71-0.686
		c0.328-0.972,0.612-1.965,0.815-2.97c0.288-1.424,0.475-2.868,0.732-4.298c0.118-0.659,0.423-1.306,0.431-1.961
		c0.036-3.041,0.318-6.076-0.352-9.117c-0.368-1.671-0.214-3.455-0.335-5.185c-0.047-0.672-0.141-1.355-0.325-2.001
		C244.273,31.546,244.638,30.722,245.523,29.955z"/>
	<path fill="#FFFFFF" d="M45.515,61.921c0.188,0.439,0.376,0.878,0.565,1.317c0.378-0.33,0.9-0.586,1.111-1
		c1.563-3.081,3.058-6.196,4.587-9.295c0.771-1.562,1.569-3.111,2.355-4.665c0.072-0.142,0.133-0.294,0.231-0.417
		c0.503-0.634,0.882-1.591,1.968-0.955c0.645,0.377,0.772,1.612,0.176,2.39c-0.78,1.017-1.641,1.941-1.688,3.345
		c-0.011,0.316-0.494,0.598-0.705,0.93c-0.571,0.902-1.196,1.784-1.651,2.744c-1.248,2.636-2.421,5.307-3.619,7.965
		c-0.455,1.01-0.93,2.014-1.342,3.042c-0.687,1.717-2.545,1.321-3.143,0.09c-0.598-1.231-0.986-2.587-1.303-3.927
		c-0.455-1.926-0.696-3.902-1.155-5.827c-0.361-1.514-0.063-2.692,1.017-3.53c0.795-0.618,1.322-0.143,1.454,0.47
		c0.515,2.401,0.892,4.832,1.32,7.252C45.634,61.874,45.575,61.897,45.515,61.921z"/>
	<path fill="#FFFFFF" d="M63.903,66.292c1.133-0.857,2.188-1.729,3.318-2.491c1.497-1.009,3.076-1.899,4.557-2.93
		c0.215-0.15,0.269-0.937,0.079-1.193c-0.734-0.989-1.557-1.921-2.42-2.803c-1.841-1.883-1.751-3.192,0.396-4.639
		c0.454-0.306,0.893-0.672,1.395-0.853c0.258-0.093,0.766,0.068,0.93,0.286c0.138,0.184,0.04,0.682-0.123,0.931
		c-0.996,1.531-0.928,1.784,0.466,2.996c0.617,0.536,1.085,1.257,1.563,1.934c0.612,0.869,1.432,1.087,2.366,0.657
		c1.746-0.805,3.507-1.581,5.284-2.315c0.255-0.105,0.636,0.093,0.958,0.151c-0.212,0.353-0.342,0.889-0.651,1.028
		c-1.502,0.678-3.08,1.189-4.575,1.879c-1.091,0.503-1.775,1.33-1.844,2.681c-0.114,2.234-1.318,4.06-3.265,4.903
		c-2.346,1.017-4.9,1.839-7.509,0.575c-0.143-0.069-0.284-0.15-0.407-0.249C64.299,66.744,64.204,66.616,63.903,66.292z
		 M72.927,62.349c-0.038-0.092-0.081-0.347-0.23-0.493c-0.092-0.09-0.413-0.091-0.518,0c-0.92,0.797-1.826,1.611-2.703,2.454
		c-0.131,0.126-0.196,0.494-0.108,0.635c0.125,0.2,0.414,0.398,0.645,0.413C70.867,65.415,72.884,63.386,72.927,62.349z"/>
	<path fill="#FFFFFF" d="M346.516,66.44c1.459-0.961,2.254-2.343,3.87-2.943c1.501-0.557,2.804-1.68,4.131-2.642
		c0.203-0.147,0.239-0.909,0.05-1.147c-0.816-1.027-1.732-1.975-2.633-2.933c-1.27-1.35-1.488-2.685-0.437-3.809
		c0.585-0.626,1.346-1.125,2.107-1.532c0.291-0.155,0.922-0.016,1.176,0.224c0.163,0.154,0.037,0.817-0.162,1.115
		c-0.91,1.358-0.878,1.574,0.294,2.656c0.667,0.616,1.261,1.325,1.81,2.052c0.717,0.951,1.479,1.128,2.555,0.628
		c1.676-0.779,3.379-1.503,5.091-2.198c0.269-0.109,0.649,0.056,0.977,0.094c-0.227,0.352-0.375,0.876-0.695,1.022
		c-0.964,0.439-2.041,0.639-2.989,1.103c-0.979,0.48-1.901,1.109-2.762,1.783c-0.32,0.251-0.54,0.808-0.558,1.236
		c-0.103,2.457-1.272,4.441-3.374,5.386c-2.366,1.064-4.989,1.814-7.616,0.489C347.113,66.904,346.908,66.717,346.516,66.44z
		 M355.834,62.543c-0.219-0.329-0.33-0.589-0.524-0.744c-0.081-0.065-0.381,0.044-0.512,0.155c-0.842,0.721-1.689,1.44-2.474,2.22
		c-0.187,0.186-0.143,0.603-0.206,0.914c0.326,0.064,0.728,0.279,0.963,0.161c0.597-0.3,1.18-0.688,1.655-1.155
		C355.172,63.665,355.46,63.087,355.834,62.543z"/>
	<path fill="#FFFFFF" d="M341.191,63.861c2.497,0.161,4.184-1.217,5.869-2.604c0.213-0.175,0.439-0.423,0.681-0.452
		c0.353-0.043,0.726,0.082,1.091,0.136c-0.119,0.308-0.152,0.717-0.373,0.903c-0.606,0.508-1.31,0.897-1.939,1.38
		c-0.948,0.727-1.854,1.508-2.799,2.239c-1.64,1.268-4.28,1.093-6.017-0.013c-1.623-1.033-2.511-2.484-3.226-4.139
		c-0.106-0.245-0.187-0.569-0.119-0.81c0.993-3.51,2.118-6.936,5.692-8.785c1.318-0.682,2.424-0.215,2.843,1.211
		c0.603,2.055-0.542,3.462-1.812,4.749c-0.801,0.811-1.8,1.432-2.734,2.105c-0.669,0.483-0.937,0.947-0.237,1.636
		c0.583,0.574,1.051,1.273,1.667,1.804C340.154,63.543,340.714,63.654,341.191,63.861z M338.316,57.445
		c0.376-0.222,0.62-0.302,0.771-0.466c0.693-0.755,1.392-1.509,2.016-2.32c0.192-0.249,0.152-0.676,0.219-1.021
		c-0.366,0-0.778-0.11-1.091,0.019c-1.346,0.559-1.76,1.861-2.254,3.065C337.913,56.877,338.179,57.168,338.316,57.445z"/>
	<path fill="#FFFFFF" d="M272.658,66.858c-1.896-0.307-3.688-0.411-5.361-0.911c-2.869-0.857-3.272-2.949-3.003-5.634
		c0.235-2.347,1.268-4.394,3.434-5.579c0.635-0.348,1.502-0.373,2.257-0.351c0.275,0.008,0.59,0.557,0.758,0.919
		c0.04,0.086-0.403,0.511-0.685,0.613c-1.983,0.719-2.605,2.381-2.778,4.213c-0.16,1.698,0.714,3.034,2.191,3.817
		c0.909,0.482,1.967,0.917,2.965,0.931c0.934,0.014,1.471,0.323,1.696,1.064C274.173,66.08,273.203,66.527,272.658,66.858z"/>
	<path fill="#FFFFFF" d="M59.248,53.218c1.45,1.413,1.083,3.305,1.481,4.959c0.165,0.685,0.135,1.436,0.086,2.149
		c-0.084,1.22,0.339,2.241,0.974,3.242c0.172,0.271,0.217,0.902,0.044,1.056c-0.359,0.318-1.029,0.703-1.345,0.561
		c-0.608-0.275-1.2-0.813-1.551-1.392c-1.395-2.304-1.794-4.929-1.929-7.539C56.939,54.921,57.641,53.675,59.248,53.218z"/>
	<path fill="#FFFFFF" d="M259.411,53.166c0.32,1.218,0.69,2.393,0.924,3.595c0.189,0.973,0.3,1.978,0.291,2.968
		c-0.012,1.382,0.176,2.662,0.937,3.862c0.179,0.283,0.118,0.973-0.109,1.195c-0.294,0.289-0.945,0.51-1.294,0.375
		c-0.506-0.195-0.993-0.663-1.291-1.138c-1.493-2.377-1.826-5.098-2.123-7.806C256.62,55.068,257.739,53.771,259.411,53.166z"/>
	<path fill="#FFFFFF" d="M261.927,44.697c-0.812-0.714-1.717-1.414-2.478-2.246c-0.189-0.207-0.02-0.899,0.176-1.264
		c0.319-0.595,0.819-0.502,1.278-0.071c0.49,0.461,1.016,0.886,1.476,1.374C263.051,43.202,263.017,43.891,261.927,44.697z"/>
	<path fill="#FFFFFF" d="M59.125,40.484c0.566,0.717,1.272,1.481,1.805,2.351c0.208,0.34,0.027,0.918,0.023,1.388
		c-0.378-0.009-0.823,0.105-1.121-0.054c-0.601-0.323-1.257-0.695-1.649-1.225C57.295,41.741,57.382,41.586,59.125,40.484z"/>
</g>
</svg>
